<?xml version="1.0" encoding="UTF-8" standalone="no"?><!DOCTYPE svg PUBLIC "-//W3C//DTD SVG 1.1//EN" "http://www.w3.org/Graphics/SVG/1.1/DTD/svg11.dtd"><svg width="100%" height="100%" viewBox="0 0 2096 979" version="1.1" xmlns="http://www.w3.org/2000/svg" xmlns:xlink="http://www.w3.org/1999/xlink" xml:space="preserve" xmlns:serif="http://www.serif.com/" style="fill-rule:evenodd;clip-rule:evenodd;stroke-linecap:round;stroke-linejoin:round;stroke-miterlimit:1.5;"><path d="M1614.96,552.59c128.258,7.807 257.897,27.722 370.755,92.312c35.66,20.409 126.931,82.601 98.447,130.506c-17.364,29.205 -91.339,78.943 -235.249,128.083c-128.615,43.919 -345.258,60.194 -558.104,66.485c-244.825,7.236 -511.945,-3.143 -725.968,-19.468c-53.222,-4.06 -175.712,-2.829 -212.258,-23.508c-55.149,-31.205 -0,-105.787 -0,-105.787c-0,-0 -102.165,52.516 -156.401,59.437c-17.636,2.25 -187.939,-50.292 -189.915,-141.776c-3.277,-151.685 536.231,-164.497 536.231,-164.497c-0,0 -455.348,77.744 -446.859,164.497c4.595,46.961 56.23,71.368 100.543,82.339c43.073,10.663 89,-4.702 131.824,-16.456c42.824,-11.754 125.12,-54.069 125.12,-54.069c0,0 -31.869,30.777 -44.686,58.771c-16.142,35.258 -26.691,69.79 -22.343,71.191c37.157,11.969 581.457,58.913 1027.78,22.841c292.471,-23.637 542.867,-114.1 580.917,-164.557c14.818,-19.648 -70.971,-79.121 -101.107,-92.94c-47.671,-21.859 -188.61,-86 -278.723,-93.404Zm-412.04,-414.871c-1.697,-3.704 -2.895,-7.811 -3.539,-12.348c-6.1,-43 39.911,-108.387 100.079,-117.836c60.168,-9.448 119.982,34.872 126.082,77.872c1.14,8.041 0.322,15.471 -2.157,22.303c84.03,30.674 166.963,99.902 183.757,136.113c24.809,53.493 -94.457,122.935 -148.853,175.068c-89.386,85.668 -184.085,290.013 -74.426,320.959c60.31,17.021 77.778,15.287 177.013,25.013c-0,-0 -242.81,50.864 -310.11,-0c-43.263,-32.698 9.889,-146.044 25.951,-170.903c72.983,-112.952 275.741,-292.568 231.19,-350.137c-48.9,-63.188 -120.44,-95.982 -198.471,-58.357c-241.462,116.43 -392.242,185.707 -571.747,408.494c-96.637,119.938 66.802,174.823 128.541,193.412l-103.959,-0c-100.671,-0.121 -215.321,-38.107 -168.938,-139.222c97.102,-211.682 375.376,-409.035 609.761,-510.058l-0.174,-0.373Zm-411.117,560.034c-17.971,-20.252 43.766,-113.442 99.235,-166.315c41.758,-39.803 187.617,-158.048 198.471,-145.891c10.854,12.158 -100.688,155.241 -149.485,207.426c-62.815,67.178 -124.087,131.977 -148.221,104.78Zm599.728,-5.835c-17.972,-20.252 24.554,-97.383 67.028,-164.557c52.409,-82.887 145.944,-121.047 156.401,-108.417c10.854,13.109 -199.296,300.171 -223.429,272.974Zm-82.095,-644.945c30.767,-5.4 70.265,9.067 63.845,38.434c-2.695,12.329 -34.19,28.644 -62.5,34.821c-36.069,7.87 -60.035,1.747 -62.5,-20.834c-3.035,-27.793 25.425,-46.149 61.155,-52.421Z" style="stroke:#000;stroke-width:12.5px;"/></svg>